# Blender v2.90.1 OBJ File: ''
# www.blender.org
mtllib Pared.mtl
o Cube
v 1.000000 20.000000 -27.480000
v 1.000000 -20.000000 -27.480000
v 1.000000 20.000000 27.480000
v 1.000000 -20.000000 27.480000
v -1.000000 20.000000 -27.480000
v -1.000000 -20.000000 -27.480000
v -1.000000 20.000000 27.480000
v -1.000000 -20.000000 27.480000
v -1.000000 -20.000000 -9.159999
v -1.000000 -20.000000 9.159999
v 1.000000 20.000000 -9.159999
v 1.000000 20.000000 9.159999
v -1.000000 20.000000 9.159999
v -1.000000 20.000000 -9.159999
v 1.000000 -20.000000 9.159999
v 1.000000 -20.000000 -9.159999
v 1.000000 6.666666 -27.480000
v 1.000000 -6.666666 -27.480000
v -1.000000 -6.666666 27.480000
v -1.000000 6.666666 27.480000
v 1.000000 6.666666 27.480000
v 1.000000 -6.666666 27.480000
v -1.000000 6.666666 -27.480000
v -1.000000 -6.666666 -27.480000
v 1.000000 6.666666 -9.159999
v 1.000000 -6.666666 -9.159999
v 1.000000 6.666666 9.159999
v 1.000000 -6.666666 9.159999
v -1.000000 6.666666 9.159999
v -1.000000 -6.666666 9.159999
v -1.000000 6.666666 -9.159999
v -1.000000 -6.666666 -9.159999
vt 0.625000 0.666667
vt 0.875000 0.666667
vt 0.875000 0.750000
vt 0.625000 0.750000
vt 0.541667 0.750000
vt 0.625000 1.000000
vt 0.541667 1.000000
vt 0.541667 0.166667
vt 0.625000 0.166667
vt 0.625000 0.250000
vt 0.541667 0.250000
vt 0.125000 0.666667
vt 0.375000 0.666667
vt 0.375000 0.750000
vt 0.125000 0.750000
vt 0.541667 0.666667
vt 0.625000 0.500000
vt 0.541667 0.500000
vt 0.625000 0.583333
vt 0.541667 0.583333
vt 0.125000 0.500000
vt 0.375000 0.500000
vt 0.375000 0.583333
vt 0.125000 0.583333
vt 0.541667 0.000000
vt 0.625000 0.000000
vt 0.625000 0.083333
vt 0.541667 0.083333
vt 0.875000 0.500000
vt 0.875000 0.583333
vt 0.375000 0.083333
vt 0.458333 0.083333
vt 0.458333 0.166667
vt 0.375000 0.166667
vt 0.458333 0.583333
vt 0.375000 0.000000
vt 0.458333 0.000000
vt 0.458333 0.666667
vt 0.458333 0.500000
vt 0.375000 0.250000
vt 0.458333 0.250000
vt 0.458333 0.750000
vt 0.458333 1.000000
vt 0.375000 1.000000
vn 0.0000 1.0000 0.0000
vn 0.0000 0.0000 1.0000
vn -1.0000 0.0000 0.0000
vn 0.0000 -1.0000 0.0000
vn 1.0000 0.0000 0.0000
vn 0.0000 0.0000 -1.0000
usemtl Material
s off
f 12/1/1 13/2/1 7/3/1 3/4/1
f 21/5/2 3/4/2 7/6/2 20/7/2
f 31/8/3 14/9/3 5/10/3 23/11/3
f 10/12/4 15/13/4 4/14/4 8/15/4
f 27/16/5 12/1/5 3/4/5 21/5/5
f 23/11/6 5/10/6 1/17/6 17/18/6
f 17/18/5 1/17/5 11/19/5 25/20/5
f 25/20/5 11/19/5 12/1/5 27/16/5
f 6/21/4 2/22/4 16/23/4 9/24/4
f 9/24/4 16/23/4 15/13/4 10/12/4
f 20/25/3 7/26/3 13/27/3 29/28/3
f 29/28/3 13/27/3 14/9/3 31/8/3
f 1/17/1 5/29/1 14/30/1 11/19/1
f 11/19/1 14/30/1 13/2/1 12/1/1
f 10/31/3 30/32/3 32/33/3 9/34/3
f 26/35/2 25/20/2 31/8/2 32/33/2
f 8/36/3 19/37/3 30/32/3 10/31/3
f 19/37/3 20/25/3 29/28/3 30/32/3
f 16/23/5 26/35/5 28/38/5 15/13/5
f 29/28/4 31/8/4 25/20/4 27/16/4
f 2/22/5 18/39/5 26/35/5 16/23/5
f 18/39/5 17/18/5 25/20/5 26/35/5
f 6/40/6 24/41/6 18/39/6 2/22/6
f 24/41/6 23/11/6 17/18/6 18/39/6
f 15/13/5 28/38/5 22/42/5 4/14/5
f 28/38/5 27/16/5 21/5/5 22/42/5
f 9/34/3 32/33/3 24/41/3 6/40/3
f 32/33/3 31/8/3 23/11/3 24/41/3
f 4/14/2 22/42/2 19/43/2 8/44/2
f 22/42/2 21/5/2 20/7/2 19/43/2
f 30/32/1 28/38/1 26/35/1 32/33/1
f 28/38/6 30/32/6 29/28/6 27/16/6
